<svg width="78" height="36" viewBox="0 0 78 36" fill="none" xmlns="http://www.w3.org/2000/svg">
<path d="M39 1.58826C49.7148 1.58826 59.3903 3.535 66.3676 6.6606C69.8568 8.22364 72.6482 10.0711 74.5602 12.0959C76.4697 14.1181 77.48 16.2913 77.48 18.5294C77.48 20.7675 76.4697 22.9408 74.5602 24.963C72.6482 26.9877 69.8568 28.8352 66.3676 30.3983C59.3903 33.5239 49.7148 35.4706 39 35.4706C28.2853 35.4706 18.6098 33.5239 11.6325 30.3983C8.14317 28.8352 5.35176 26.9877 3.43994 24.963C1.5306 22.9408 0.52002 20.7675 0.52002 18.5294C0.52002 16.2913 1.5306 14.1181 3.43994 12.0959C5.35176 10.0711 8.14317 8.22364 11.6325 6.6606C18.6098 3.535 28.2853 1.58826 39 1.58826Z" fill="#108A5F"/>
<path d="M8.06213 22.2353L10.9263 9.65647H15.5127C16.9604 9.65647 18.0898 9.99318 18.901 10.6666C19.7122 11.3273 20.1178 12.2421 20.1178 13.4111C20.1178 14.3259 19.9057 15.1391 19.4813 15.8506C19.057 16.5494 18.4517 17.1021 17.6655 17.5087C16.8793 17.9153 15.9495 18.1186 14.8762 18.1186H10.7017L11.2633 15.66H14.7826C15.2569 15.66 15.65 15.5711 15.962 15.3932C16.2865 15.2026 16.5298 14.9548 16.6921 14.6499C16.8543 14.3449 16.9354 14.0146 16.9354 13.6588C16.9354 13.1887 16.7919 12.8139 16.5049 12.5344C16.2178 12.2548 15.7623 12.1151 15.1383 12.1151H13.5658L11.282 22.2353H8.06213ZM19.0367 22.2353L21.9009 9.65647H26.4873C27.935 9.65647 29.0644 9.99318 29.8756 10.6666C30.6868 11.3273 31.0924 12.2421 31.0924 13.4111C31.0924 14.3259 30.8803 15.1391 30.4559 15.8506C30.0316 16.5494 29.4263 17.1021 28.6401 17.5087C27.8539 17.9153 26.9241 18.1186 25.8508 18.1186H21.6763L22.2379 15.66H25.7572C26.2315 15.66 26.6246 15.5711 26.9366 15.3932C27.2611 15.2026 27.5044 14.9548 27.6667 14.6499C27.8289 14.3449 27.91 14.0146 27.91 13.6588C27.91 13.1887 27.7665 12.8139 27.4795 12.5344C27.1924 12.2548 26.7369 12.1151 26.1129 12.1151H24.5404L22.2566 22.2353H19.0367ZM35.852 22.4449C35.0033 22.4449 34.1984 22.3306 33.4371 22.1019C32.6883 21.8605 32.0019 21.5111 31.3779 21.0536C30.7664 20.5835 30.2485 20.0054 29.8241 19.3193L31.6961 17.4325C31.9957 17.9788 32.3701 18.4362 32.8193 18.8047C33.2686 19.1732 33.7553 19.4527 34.2795 19.6433C34.8161 19.8212 35.3403 19.9101 35.852 19.9101C36.2139 19.9101 36.5134 19.8529 36.7505 19.7386C36.9877 19.6242 37.1624 19.4718 37.2747 19.2812C37.3995 19.0906 37.4619 18.8873 37.4619 18.6713C37.4619 18.4045 37.3621 18.1885 37.1624 18.0233C36.9752 17.8581 36.6944 17.712 36.32 17.5849L34.5041 16.9751C33.6805 16.6955 32.9878 16.2762 32.4262 15.7172C31.8646 15.1454 31.5838 14.4085 31.5838 13.5064C31.5838 12.6551 31.796 11.9308 32.2203 11.3336C32.6446 10.7238 33.2312 10.26 33.98 9.94235C34.7288 9.62471 35.5774 9.46588 36.5259 9.46588C37.7989 9.46588 38.8659 9.70094 39.727 10.1711C40.6006 10.6285 41.3245 11.2765 41.8985 12.1151L39.9329 13.9447C39.6833 13.4873 39.3776 13.1188 39.0157 12.8393C38.6537 12.5471 38.2544 12.3374 37.8176 12.2104C37.3933 12.0706 36.9627 12.0007 36.5259 12.0007C36.164 12.0007 35.8645 12.0515 35.6273 12.1532C35.3902 12.2548 35.2155 12.3946 35.1032 12.5725C34.9909 12.7376 34.9347 12.9346 34.9347 13.1633C34.9347 13.4301 35.047 13.6652 35.2717 13.8685C35.5088 14.0591 35.8208 14.2242 36.2077 14.364L38.0235 14.9739C38.947 15.2788 39.6397 15.6981 40.1014 16.2318C40.5757 16.7527 40.8128 17.4325 40.8128 18.2711C40.8128 19.1478 40.5881 19.8974 40.1389 20.52C39.7021 21.1426 39.1093 21.6191 38.3605 21.9494C37.6117 22.2798 36.7755 22.4449 35.852 22.4449Z" fill="white"/>
<path d="M43.2515 23.9379C42.5194 23.9379 42.016 23.7261 41.7415 23.3026C41.4669 22.8706 41.4087 22.3115 41.5667 21.6254L43.1143 14.777H45.2359L43.7008 21.6C43.6426 21.888 43.6509 22.0998 43.7258 22.2353C43.809 22.3708 43.9712 22.4386 44.2125 22.4386C44.3872 22.4386 44.5203 22.4217 44.6119 22.3878L44.225 23.7854C44.1002 23.8447 43.9587 23.8828 43.8007 23.8998C43.6509 23.9252 43.4679 23.9379 43.2515 23.9379ZM48.7446 17.4706L47.2969 23.8235H45.1753L46.623 17.4706H48.7446ZM47.9709 16.7337C47.6048 16.7337 47.3177 16.6574 47.1097 16.505C46.9101 16.3525 46.831 16.1068 46.8726 15.768C46.9142 15.3699 47.0432 15.0861 47.2595 14.9167C47.4841 14.7473 47.7878 14.6626 48.1705 14.6626C48.5533 14.6626 48.8445 14.7431 49.0441 14.904C49.2438 15.0565 49.3229 15.2937 49.2813 15.6155C49.248 16.0306 49.119 16.3228 48.8944 16.4922C48.6697 16.6532 48.3619 16.7337 47.9709 16.7337ZM48.7581 23.8235L50.2058 17.4706H52.0905L51.7658 19.4908L51.666 19.313C51.8407 18.6777 52.1404 18.1906 52.5647 17.8518C52.9974 17.513 53.5049 17.3435 54.0873 17.3435C54.5199 17.3435 54.8819 17.4452 55.1731 17.6485C55.4726 17.8433 55.6764 18.1228 55.7846 18.4871C55.9011 18.8513 55.9011 19.2918 55.7846 19.8085L54.8735 23.8235H52.7519L53.6006 20.0753C53.6755 19.7365 53.6505 19.4739 53.5257 19.2875C53.4009 19.0927 53.1971 18.9953 52.9142 18.9953C52.6979 18.9953 52.5065 19.0546 52.3401 19.1732C52.182 19.2833 52.0447 19.4442 51.9281 19.656C51.8199 19.8593 51.7325 20.105 51.666 20.393L50.8797 23.8235H48.7581ZM64.3277 17.4706L60.7958 20.6471L60.5462 20.7614L58.3373 22.769L58.5245 20.7233L61.8691 17.4706H64.3277ZM60.4589 14.777L58.3997 23.8235H56.2781L58.3373 14.777H60.4589ZM61.32 19.3765L63.1296 23.8235H61.0454L59.8349 20.609L61.32 19.3765ZM66.7951 23.9633C66.3624 23.9633 65.9381 23.8998 65.5221 23.7727C65.1144 23.6457 64.7442 23.4635 64.4114 23.2264C64.0786 22.9807 63.8082 22.6927 63.6002 22.3624L64.6984 21.3332C64.9147 21.672 65.1893 21.9515 65.5221 22.1718C65.8632 22.392 66.221 22.5021 66.5954 22.5021C66.845 22.5021 67.0363 22.464 67.1695 22.3878C67.3026 22.3031 67.3691 22.1845 67.3691 22.032C67.3691 21.9304 67.3317 21.8372 67.2568 21.7525C67.1819 21.6593 67.053 21.5831 66.8699 21.5238L66.1586 21.2951C65.5595 21.1002 65.1227 20.8546 64.8482 20.5581C64.5819 20.2617 64.4488 19.889 64.4488 19.44C64.4488 19.008 64.5611 18.6353 64.7858 18.3219C65.0104 18.0085 65.3224 17.7671 65.7218 17.5977C66.1211 17.4282 66.5829 17.3435 67.1071 17.3435C67.5314 17.3435 67.9224 17.3944 68.2802 17.496C68.6463 17.5977 68.9707 17.7459 69.2536 17.9407C69.5448 18.1355 69.7861 18.3727 69.9775 18.6522L68.9291 19.7195C68.7544 19.4485 68.509 19.2282 68.1928 19.0588C67.8767 18.881 67.5439 18.792 67.1944 18.792C66.9531 18.792 66.7701 18.8344 66.6453 18.9191C66.5205 18.9953 66.4581 19.1054 66.4581 19.2494C66.4581 19.3934 66.5163 19.4993 66.6328 19.5671C66.7576 19.6348 66.8783 19.6899 66.9947 19.7322L68.1429 20.1007C68.5839 20.2362 68.9167 20.448 69.1413 20.736C69.3659 21.0155 69.4783 21.3544 69.4783 21.7525C69.4783 22.4386 69.237 22.9807 68.7544 23.3788C68.2719 23.7685 67.6187 23.9633 66.7951 23.9633Z" fill="white"/>
</svg>
